<svg width="11" height="20" viewBox="0 0 11 20" fill="none" xmlns="http://www.w3.org/2000/svg">
<path d="M3.85831 2.13722C4.37379 1.11601 5.33243 0.315207 6.32009 0.0805279C6.70772 -0.0115401 8.73415 -0.0288262 9.84996 0.050371L10.7099 0.111343V1.59082V3.0702L9.5591 3.10684C8.2569 3.14818 7.80173 3.30798 7.40621 3.86246C7.20019 4.15134 7.18515 4.26774 7.15744 5.79053L7.12785 7.41111H8.825H10.5221L10.5159 7.71644C10.5124 7.88442 10.3962 8.69133 10.2575 9.50961L10.0053 10.9974L8.59614 11.0128L7.18694 11.0281L7.16251 15.514L7.13818 20H5.21405H3.28993L3.2656 15.514L3.24117 11.0281L3.02979 11.0163C2.91348 11.0098 2.18427 10.9993 1.4092 10.9928L0 10.9811V9.1961V7.41111H1.64407H3.28814L3.28955 5.64961C3.29106 3.67625 3.39007 3.06475 3.85831 2.13722Z" fill="white"/>
</svg>
