<svg width="21" height="20" viewBox="0 0 21 20" fill="none" xmlns="http://www.w3.org/2000/svg">
<path fill-rule="evenodd" clip-rule="evenodd" d="M0.892716 4.09911C1.39813 2.13894 3.13007 0.469533 5.03185 0.1095C5.31702 0.0555777 7.86017 0.00694414 10.6833 0.00155194C16.3703 -0.00923247 16.706 0.0200101 17.8663 0.627566C19.1266 1.28749 20.2231 2.66323 20.5912 4.04591C20.8086 4.86262 20.8085 15.1271 20.5912 15.9438C20.0695 17.9042 18.3454 19.5293 16.3984 19.8963C16.067 19.9587 13.7473 20.0009 10.6951 20C6.47292 19.9987 5.43119 19.9704 4.88596 19.8419C2.98904 19.3947 1.38559 17.8146 0.887222 15.9012C0.647684 14.9814 0.652244 5.03175 0.892716 4.09911ZM16.918 2.08927C17.5602 2.40471 18.3272 3.15703 18.6485 3.78688C19.0605 4.59436 19.0982 5.19663 19.0637 10.4096L19.0308 15.3871L18.73 16.0385C18.3419 16.8789 17.457 17.7189 16.6363 18.026C16.0616 18.241 15.9338 18.245 10.5924 18.2162C5.25044 18.1875 5.12539 18.1822 4.65066 17.9628C4.0486 17.6846 3.28426 16.9902 2.94766 16.4158C2.44712 15.5617 2.39134 14.9295 2.3902 10.0986C2.38957 7.53373 2.43448 5.36047 2.49576 4.98249C2.73851 3.48668 3.63216 2.41332 5.06753 1.8937C5.36721 1.78523 6.58802 1.76138 10.8907 1.77963L16.3347 1.80286L16.918 2.08927ZM15.634 5.6446C14.851 5.27295 14.765 4.15562 15.4856 3.71626C16.1125 3.33404 16.8493 3.53863 17.1533 4.17937C17.3634 4.62205 17.2908 5.01215 16.9254 5.40506C16.5816 5.77453 16.0973 5.86443 15.634 5.6446ZM5.37374 9.28101C5.68659 7.10329 7.38545 5.20492 9.47503 4.69806C11.2852 4.25901 13.2339 4.82228 14.5933 6.17749C16.8132 8.39089 16.7318 11.94 14.4132 14.0226C12.2248 15.9883 8.95396 15.9023 6.89839 13.8251C5.72392 12.6382 5.14115 10.9012 5.37374 9.28101ZM14.2868 9.44133C14.1182 8.32535 13.3307 7.28455 12.2573 6.75943C11.6635 6.46898 10.5205 6.34817 9.89344 6.50963C8.88593 6.76908 7.86287 7.63058 7.44383 8.57246C7.30954 8.87421 7.20916 9.35951 7.18178 9.83932C7.08078 11.6075 8.1864 13.0775 9.95742 13.5298C10.5298 13.676 10.733 13.6832 11.3046 13.5781C13.3144 13.2085 14.5889 11.4405 14.2868 9.44133Z" fill="white"/>
</svg>
