<svg width="21" height="20" viewBox="0 0 21 20" fill="none" xmlns="http://www.w3.org/2000/svg">
<path d="M1.16616 3.71568C0.363286 2.44968 0.76733 0.917485 2.08803 0.21938C2.56607 -0.0332878 3.27677 -0.0715674 3.84583 0.12467C5.30587 0.628271 5.91679 2.46668 5.03852 3.7136C4.08486 5.06749 2.02419 5.06864 1.16616 3.71568Z" fill="white"/>
<path d="M11.5887 8.15929C11.9745 7.66876 12.9495 7.02454 13.6407 6.80355C14.4878 6.53262 16.6007 6.5037 17.4352 6.75152C18.7353 7.13763 19.9582 8.35945 20.3723 9.68593C20.5854 10.3691 20.6016 10.7582 20.6016 15.2105V20L18.6647 19.9683L16.7277 19.9366L16.6699 15.884C16.617 12.1721 16.5938 11.8026 16.3945 11.4898C15.7955 10.5499 15.1102 10.1413 14.1368 10.1437C13.0867 10.1463 12.317 10.568 11.7219 11.4669L11.4084 11.9402L11.3506 15.9385L11.2928 19.9366L9.35585 19.9683L7.41892 20V13.3453V6.69058L9.35585 6.72226L11.2928 6.75394L11.3269 7.60122L11.3611 8.4485L11.5887 8.15929Z" fill="white"/>
<path d="M1.17449 20V13.3481V6.69612H3.14126H5.10802L5.07819 13.3164L5.04835 19.9366L3.11142 19.9683L1.17449 20Z" fill="white"/>
</svg>
