<svg width="1440" height="253" viewBox="0 0 1440 253" fill="none" xmlns="http://www.w3.org/2000/svg">
<g opacity="0.12" clip-path="url(#clip0_410_1029)">
<rect x="5" y="-210" width="6" height="673" fill="#D9D9D9"/>
<rect x="21" y="-210" width="6" height="673" fill="#D9D9D9"/>
<rect x="37" y="-210" width="6" height="673" fill="#D9D9D9"/>
<rect x="53" y="-210" width="6" height="673" fill="#D9D9D9"/>
<rect x="69" y="-210" width="6" height="673" fill="#D9D9D9"/>
<rect x="85" y="-210" width="6" height="673" fill="#D9D9D9"/>
<rect x="101" y="-210" width="6" height="673" fill="#D9D9D9"/>
<rect x="117" y="-210" width="6" height="673" fill="#D9D9D9"/>
<rect x="133" y="-210" width="6" height="673" fill="#D9D9D9"/>
<rect x="149" y="-210" width="6" height="673" fill="#D9D9D9"/>
<rect x="165" y="-210" width="6" height="673" fill="#D9D9D9"/>
<rect x="181" y="-210" width="6" height="673" fill="#D9D9D9"/>
<rect x="197" y="-210" width="6" height="673" fill="#D9D9D9"/>
<rect x="213" y="-210" width="6" height="673" fill="#D9D9D9"/>
<rect x="229" y="-210" width="6" height="673" fill="#D9D9D9"/>
<rect x="245" y="-210" width="6" height="673" fill="#D9D9D9"/>
<rect x="261" y="-210" width="6" height="673" fill="#D9D9D9"/>
<rect x="277" y="-210" width="6" height="673" fill="#D9D9D9"/>
<rect x="293" y="-210" width="6" height="673" fill="#D9D9D9"/>
<rect x="309" y="-210" width="6" height="673" fill="#D9D9D9"/>
<rect x="325" y="-210" width="6" height="673" fill="#D9D9D9"/>
<rect x="341" y="-210" width="6" height="673" fill="#D9D9D9"/>
<rect x="357" y="-210" width="6" height="673" fill="#D9D9D9"/>
<rect x="373" y="-210" width="6" height="673" fill="#D9D9D9"/>
<rect x="389" y="-210" width="6" height="673" fill="#D9D9D9"/>
<rect x="405" y="-210" width="6" height="673" fill="#D9D9D9"/>
<rect x="421" y="-210" width="6" height="673" fill="#D9D9D9"/>
<rect x="437" y="-210" width="6" height="673" fill="#D9D9D9"/>
<rect x="453" y="-210" width="6" height="673" fill="#D9D9D9"/>
<rect x="469" y="-210" width="6" height="673" fill="#D9D9D9"/>
<rect x="485" y="-210" width="6" height="673" fill="#D9D9D9"/>
<rect x="501" y="-210" width="6" height="673" fill="#D9D9D9"/>
<rect x="517" y="-210" width="6" height="673" fill="#D9D9D9"/>
<rect x="533" y="-210" width="6" height="673" fill="#D9D9D9"/>
<rect x="549" y="-210" width="6" height="673" fill="#D9D9D9"/>
<rect x="565" y="-210" width="6" height="673" fill="#D9D9D9"/>
<rect x="581" y="-210" width="6" height="673" fill="#D9D9D9"/>
<rect x="597" y="-210" width="6" height="673" fill="#D9D9D9"/>
<rect x="613" y="-210" width="6" height="673" fill="#D9D9D9"/>
<rect x="629" y="-210" width="6" height="673" fill="#D9D9D9"/>
<rect x="645" y="-210" width="6" height="673" fill="#D9D9D9"/>
<rect x="661" y="-210" width="6" height="673" fill="#D9D9D9"/>
<rect x="677" y="-210" width="6" height="673" fill="#D9D9D9"/>
<rect x="693" y="-210" width="6" height="673" fill="#D9D9D9"/>
<rect x="709" y="-210" width="6" height="673" fill="#D9D9D9"/>
<rect x="725" y="-210" width="6" height="673" fill="#D9D9D9"/>
<rect x="741" y="-210" width="6" height="673" fill="#D9D9D9"/>
<rect x="757" y="-210" width="6" height="673" fill="#D9D9D9"/>
<rect x="773" y="-210" width="6" height="673" fill="#D9D9D9"/>
<rect x="789" y="-210" width="6" height="673" fill="#D9D9D9"/>
<rect x="805" y="-210" width="6" height="673" fill="#D9D9D9"/>
<rect x="821" y="-210" width="6" height="673" fill="#D9D9D9"/>
<rect x="837" y="-210" width="6" height="673" fill="#D9D9D9"/>
<rect x="853" y="-210" width="6" height="673" fill="#D9D9D9"/>
<rect x="869" y="-210" width="6" height="673" fill="#D9D9D9"/>
<rect x="885" y="-210" width="6" height="673" fill="#D9D9D9"/>
<rect x="901" y="-210" width="6" height="673" fill="#D9D9D9"/>
<rect x="917" y="-210" width="6" height="673" fill="#D9D9D9"/>
<rect x="933" y="-210" width="6" height="673" fill="#D9D9D9"/>
<rect x="949" y="-210" width="6" height="673" fill="#D9D9D9"/>
<rect x="965" y="-210" width="6" height="673" fill="#D9D9D9"/>
<rect x="981" y="-210" width="6" height="673" fill="#D9D9D9"/>
<rect x="997" y="-210" width="6" height="673" fill="#D9D9D9"/>
<rect x="1013" y="-210" width="6" height="673" fill="#D9D9D9"/>
<rect x="1029" y="-210" width="6" height="673" fill="#D9D9D9"/>
<rect x="1045" y="-210" width="6" height="673" fill="#D9D9D9"/>
<rect x="1061" y="-210" width="6" height="673" fill="#D9D9D9"/>
<rect x="1077" y="-210" width="6" height="673" fill="#D9D9D9"/>
<rect x="1093" y="-210" width="6" height="673" fill="#D9D9D9"/>
<rect x="1109" y="-210" width="6" height="673" fill="#D9D9D9"/>
<rect x="1125" y="-210" width="6" height="673" fill="#D9D9D9"/>
<rect x="1141" y="-210" width="6" height="673" fill="#D9D9D9"/>
<rect x="1157" y="-210" width="6" height="673" fill="#D9D9D9"/>
<rect x="1173" y="-210" width="6" height="673" fill="#D9D9D9"/>
<rect x="1189" y="-210" width="6" height="673" fill="#D9D9D9"/>
<rect x="1205" y="-210" width="6" height="673" fill="#D9D9D9"/>
<rect x="1221" y="-210" width="6" height="673" fill="#D9D9D9"/>
<rect x="1237" y="-210" width="6" height="673" fill="#D9D9D9"/>
<rect x="1253" y="-210" width="6" height="673" fill="#D9D9D9"/>
<rect x="1269" y="-210" width="6" height="673" fill="#D9D9D9"/>
<rect x="1285" y="-210" width="6" height="673" fill="#D9D9D9"/>
<rect x="1301" y="-210" width="6" height="673" fill="#D9D9D9"/>
<rect x="1317" y="-210" width="6" height="673" fill="#D9D9D9"/>
<rect x="1333" y="-210" width="6" height="673" fill="#D9D9D9"/>
<rect x="1349" y="-210" width="6" height="673" fill="#D9D9D9"/>
<rect x="1365" y="-210" width="6" height="673" fill="#D9D9D9"/>
<rect x="1381" y="-210" width="6" height="673" fill="#D9D9D9"/>
<rect x="1397" y="-210" width="6" height="673" fill="#D9D9D9"/>
<rect x="1413" y="-210" width="6" height="673" fill="#D9D9D9"/>
<rect x="1429" y="-210" width="6" height="673" fill="#D9D9D9"/>
</g>
<defs>
<clipPath id="clip0_410_1029">
<rect width="1750" height="253" fill="white" transform="translate(-155)"/>
</clipPath>
</defs>
</svg>
