<svg width="253" height="1750" viewBox="0 0 253 1750" fill="none" xmlns="http://www.w3.org/2000/svg">
<g opacity="0.04" clip-path="url(#clip0_445_451)">
<rect x="463" width="6" height="673" transform="rotate(90 463 0)" fill="#D9D9D9"/>
<rect x="463" y="16" width="6" height="673" transform="rotate(90 463 16)" fill="#D9D9D9"/>
<rect x="463" y="32" width="6" height="673" transform="rotate(90 463 32)" fill="#D9D9D9"/>
<rect x="463" y="48" width="6" height="673" transform="rotate(90 463 48)" fill="#D9D9D9"/>
<rect x="463" y="64" width="6" height="673" transform="rotate(90 463 64)" fill="#D9D9D9"/>
<rect x="463" y="80" width="6" height="673" transform="rotate(90 463 80)" fill="#D9D9D9"/>
<rect x="463" y="96" width="6" height="673" transform="rotate(90 463 96)" fill="#D9D9D9"/>
<rect x="463" y="112" width="6" height="673" transform="rotate(90 463 112)" fill="#D9D9D9"/>
<rect x="463" y="128" width="6" height="673" transform="rotate(90 463 128)" fill="#D9D9D9"/>
<rect x="463" y="144" width="6" height="673" transform="rotate(90 463 144)" fill="#D9D9D9"/>
<rect x="463" y="160" width="6" height="673" transform="rotate(90 463 160)" fill="#D9D9D9"/>
<rect x="463" y="176" width="6" height="673" transform="rotate(90 463 176)" fill="#D9D9D9"/>
<rect x="463" y="192" width="6" height="673" transform="rotate(90 463 192)" fill="#D9D9D9"/>
<rect x="463" y="208" width="6" height="673" transform="rotate(90 463 208)" fill="#D9D9D9"/>
<rect x="463" y="224" width="6" height="673" transform="rotate(90 463 224)" fill="#D9D9D9"/>
<rect x="463" y="240" width="6" height="673" transform="rotate(90 463 240)" fill="#D9D9D9"/>
<rect x="463" y="256" width="6" height="673" transform="rotate(90 463 256)" fill="#D9D9D9"/>
<rect x="463" y="272" width="6" height="673" transform="rotate(90 463 272)" fill="#D9D9D9"/>
<rect x="463" y="288" width="6" height="673" transform="rotate(90 463 288)" fill="#D9D9D9"/>
<rect x="463" y="304" width="6" height="673" transform="rotate(90 463 304)" fill="#D9D9D9"/>
<rect x="463" y="320" width="6" height="673" transform="rotate(90 463 320)" fill="#D9D9D9"/>
<rect x="463" y="336" width="6" height="673" transform="rotate(90 463 336)" fill="#D9D9D9"/>
<rect x="463" y="352" width="6" height="673" transform="rotate(90 463 352)" fill="#D9D9D9"/>
<rect x="463" y="368" width="6" height="673" transform="rotate(90 463 368)" fill="#D9D9D9"/>
<rect x="463" y="384" width="6" height="673" transform="rotate(90 463 384)" fill="#D9D9D9"/>
<rect x="463" y="400" width="6" height="673" transform="rotate(90 463 400)" fill="#D9D9D9"/>
<rect x="463" y="416" width="6" height="673" transform="rotate(90 463 416)" fill="#D9D9D9"/>
<rect x="463" y="432" width="6" height="673" transform="rotate(90 463 432)" fill="#D9D9D9"/>
<rect x="463" y="448" width="6" height="673" transform="rotate(90 463 448)" fill="#D9D9D9"/>
<rect x="463" y="464" width="6" height="673" transform="rotate(90 463 464)" fill="#D9D9D9"/>
<rect x="463" y="480" width="6" height="673" transform="rotate(90 463 480)" fill="#D9D9D9"/>
<rect x="463" y="496" width="6" height="673" transform="rotate(90 463 496)" fill="#D9D9D9"/>
<rect x="463" y="512" width="6" height="673" transform="rotate(90 463 512)" fill="#D9D9D9"/>
<rect x="463" y="528" width="6" height="673" transform="rotate(90 463 528)" fill="#D9D9D9"/>
<rect x="463" y="544" width="6" height="673" transform="rotate(90 463 544)" fill="#D9D9D9"/>
<rect x="463" y="560" width="6" height="673" transform="rotate(90 463 560)" fill="#D9D9D9"/>
<rect x="463" y="576" width="6" height="673" transform="rotate(90 463 576)" fill="#D9D9D9"/>
<rect x="463" y="592" width="6" height="673" transform="rotate(90 463 592)" fill="#D9D9D9"/>
<rect x="463" y="608" width="6" height="673" transform="rotate(90 463 608)" fill="#D9D9D9"/>
<rect x="463" y="624" width="6" height="673" transform="rotate(90 463 624)" fill="#D9D9D9"/>
<rect x="463" y="640" width="6" height="673" transform="rotate(90 463 640)" fill="#D9D9D9"/>
<rect x="463" y="656" width="6" height="673" transform="rotate(90 463 656)" fill="#D9D9D9"/>
<rect x="463" y="672" width="6" height="673" transform="rotate(90 463 672)" fill="#D9D9D9"/>
<rect x="463" y="688" width="6" height="673" transform="rotate(90 463 688)" fill="#D9D9D9"/>
<rect x="463" y="704" width="6" height="673" transform="rotate(90 463 704)" fill="#D9D9D9"/>
<rect x="463" y="720" width="6" height="673" transform="rotate(90 463 720)" fill="#D9D9D9"/>
<rect x="463" y="736" width="6" height="673" transform="rotate(90 463 736)" fill="#D9D9D9"/>
<rect x="463" y="752" width="6" height="673" transform="rotate(90 463 752)" fill="#D9D9D9"/>
<rect x="463" y="768" width="6" height="673" transform="rotate(90 463 768)" fill="#D9D9D9"/>
<rect x="463" y="784" width="6" height="673" transform="rotate(90 463 784)" fill="#D9D9D9"/>
<rect x="463" y="800" width="6" height="673" transform="rotate(90 463 800)" fill="#D9D9D9"/>
<rect x="463" y="816" width="6" height="673" transform="rotate(90 463 816)" fill="#D9D9D9"/>
<rect x="463" y="832" width="6" height="673" transform="rotate(90 463 832)" fill="#D9D9D9"/>
<rect x="463" y="848" width="6" height="673" transform="rotate(90 463 848)" fill="#D9D9D9"/>
<rect x="463" y="864" width="6" height="673" transform="rotate(90 463 864)" fill="#D9D9D9"/>
<rect x="463" y="880" width="6" height="673" transform="rotate(90 463 880)" fill="#D9D9D9"/>
<rect x="463" y="896" width="6" height="673" transform="rotate(90 463 896)" fill="#D9D9D9"/>
<rect x="463" y="912" width="6" height="673" transform="rotate(90 463 912)" fill="#D9D9D9"/>
<rect x="463" y="928" width="6" height="673" transform="rotate(90 463 928)" fill="#D9D9D9"/>
<rect x="463" y="944" width="6" height="673" transform="rotate(90 463 944)" fill="#D9D9D9"/>
<rect x="463" y="960" width="6" height="673" transform="rotate(90 463 960)" fill="#D9D9D9"/>
<rect x="463" y="976" width="6" height="673" transform="rotate(90 463 976)" fill="#D9D9D9"/>
<rect x="463" y="992" width="6" height="673" transform="rotate(90 463 992)" fill="#D9D9D9"/>
<rect x="463" y="1008" width="6" height="673" transform="rotate(90 463 1008)" fill="#D9D9D9"/>
<rect x="463" y="1024" width="6" height="673" transform="rotate(90 463 1024)" fill="#D9D9D9"/>
<rect x="463" y="1040" width="6" height="673" transform="rotate(90 463 1040)" fill="#D9D9D9"/>
<rect x="463" y="1056" width="6" height="673" transform="rotate(90 463 1056)" fill="#D9D9D9"/>
<rect x="463" y="1072" width="6" height="673" transform="rotate(90 463 1072)" fill="#D9D9D9"/>
<rect x="463" y="1088" width="6" height="673" transform="rotate(90 463 1088)" fill="#D9D9D9"/>
<rect x="463" y="1104" width="6" height="673" transform="rotate(90 463 1104)" fill="#D9D9D9"/>
<rect x="463" y="1120" width="6" height="673" transform="rotate(90 463 1120)" fill="#D9D9D9"/>
<rect x="463" y="1136" width="6" height="673" transform="rotate(90 463 1136)" fill="#D9D9D9"/>
<rect x="463" y="1152" width="6" height="673" transform="rotate(90 463 1152)" fill="#D9D9D9"/>
<rect x="463" y="1168" width="6" height="673" transform="rotate(90 463 1168)" fill="#D9D9D9"/>
<rect x="463" y="1184" width="6" height="673" transform="rotate(90 463 1184)" fill="#D9D9D9"/>
<rect x="463" y="1200" width="6" height="673" transform="rotate(90 463 1200)" fill="#D9D9D9"/>
<rect x="463" y="1216" width="6" height="673" transform="rotate(90 463 1216)" fill="#D9D9D9"/>
<rect x="463" y="1232" width="6" height="673" transform="rotate(90 463 1232)" fill="#D9D9D9"/>
<rect x="463" y="1248" width="6" height="673" transform="rotate(90 463 1248)" fill="#D9D9D9"/>
<rect x="463" y="1264" width="6" height="673" transform="rotate(90 463 1264)" fill="#D9D9D9"/>
<rect x="463" y="1280" width="6" height="673" transform="rotate(90 463 1280)" fill="#D9D9D9"/>
<rect x="463" y="1296" width="6" height="673" transform="rotate(90 463 1296)" fill="#D9D9D9"/>
<rect x="463" y="1312" width="6" height="673" transform="rotate(90 463 1312)" fill="#D9D9D9"/>
<rect x="463" y="1328" width="6" height="673" transform="rotate(90 463 1328)" fill="#D9D9D9"/>
<rect x="463" y="1344" width="6" height="673" transform="rotate(90 463 1344)" fill="#D9D9D9"/>
<rect x="463" y="1360" width="6" height="673" transform="rotate(90 463 1360)" fill="#D9D9D9"/>
<rect x="463" y="1376" width="6" height="673" transform="rotate(90 463 1376)" fill="#D9D9D9"/>
<rect x="463" y="1392" width="6" height="673" transform="rotate(90 463 1392)" fill="#D9D9D9"/>
<rect x="463" y="1408" width="6" height="673" transform="rotate(90 463 1408)" fill="#D9D9D9"/>
<rect x="463" y="1424" width="6" height="673" transform="rotate(90 463 1424)" fill="#D9D9D9"/>
<rect x="463" y="1440" width="6" height="673" transform="rotate(90 463 1440)" fill="#D9D9D9"/>
<rect x="463" y="1456" width="6" height="673" transform="rotate(90 463 1456)" fill="#D9D9D9"/>
<rect x="463" y="1472" width="6" height="673" transform="rotate(90 463 1472)" fill="#D9D9D9"/>
<rect x="463" y="1488" width="6" height="673" transform="rotate(90 463 1488)" fill="#D9D9D9"/>
<rect x="463" y="1504" width="6" height="673" transform="rotate(90 463 1504)" fill="#D9D9D9"/>
<rect x="463" y="1520" width="6" height="673" transform="rotate(90 463 1520)" fill="#D9D9D9"/>
<rect x="463" y="1536" width="6" height="673" transform="rotate(90 463 1536)" fill="#D9D9D9"/>
<rect x="463" y="1552" width="6" height="673" transform="rotate(90 463 1552)" fill="#D9D9D9"/>
<rect x="463" y="1568" width="6" height="673" transform="rotate(90 463 1568)" fill="#D9D9D9"/>
<rect x="463" y="1584" width="6" height="673" transform="rotate(90 463 1584)" fill="#D9D9D9"/>
<rect x="463" y="1600" width="6" height="673" transform="rotate(90 463 1600)" fill="#D9D9D9"/>
<rect x="463" y="1616" width="6" height="673" transform="rotate(90 463 1616)" fill="#D9D9D9"/>
<rect x="463" y="1632" width="6" height="673" transform="rotate(90 463 1632)" fill="#D9D9D9"/>
<rect x="463" y="1648" width="6" height="673" transform="rotate(90 463 1648)" fill="#D9D9D9"/>
<rect x="463" y="1664" width="6" height="673" transform="rotate(90 463 1664)" fill="#D9D9D9"/>
<rect x="463" y="1680" width="6" height="673" transform="rotate(90 463 1680)" fill="#D9D9D9"/>
<rect x="463" y="1696" width="6" height="673" transform="rotate(90 463 1696)" fill="#D9D9D9"/>
<rect x="463" y="1712" width="6" height="673" transform="rotate(90 463 1712)" fill="#D9D9D9"/>
<rect x="463" y="1728" width="6" height="673" transform="rotate(90 463 1728)" fill="#D9D9D9"/>
<rect x="463" y="1744" width="6" height="673" transform="rotate(90 463 1744)" fill="#D9D9D9"/>
</g>
<defs>
<clipPath id="clip0_445_451">
<rect width="1750" height="253" fill="white" transform="translate(253) rotate(90)"/>
</clipPath>
</defs>
</svg>
